<?xml version="1.0" encoding="UTF-8" standalone="no"?>
<svg xmlns:ffdec="https://www.free-decompiler.com/flash" xmlns:xlink="http://www.w3.org/1999/xlink" ffdec:objectType="shape" height="26.9px" width="23.05px" xmlns="http://www.w3.org/2000/svg">
  <g transform="matrix(1.0, 0.0, 0.0, 1.0, 1.8, -77.75)">
    <path d="M9.25 85.1 L9.8 84.75 Q10.2 84.6 9.65 86.05 8.85 88.25 6.85 86.55 7.4 85.3 9.25 85.1 M0.55 78.1 L0.0 78.9 -1.5 78.45 Q-2.0 78.8 -1.7 77.75 L-1.15 78.2 0.55 78.1 M1.65 89.3 L1.65 89.55 0.2 90.0 0.65 89.8 1.65 89.3 M18.65 96.5 Q18.15 96.05 18.7 94.6 19.3 92.9 20.0 92.45 20.5 92.05 21.25 91.95 20.9 92.95 20.8 95.15 20.75 96.25 20.85 97.15 L20.2 97.35 Q18.9 96.8 18.65 96.5 M3.2 104.35 Q1.3 105.35 2.15 103.05 2.7 101.5 3.35 101.45 L5.0 101.55 6.25 102.8 5.9 103.75 Q5.05 104.35 3.2 104.35" fill="#cccccc" fill-opacity="0.6" fill-rule="evenodd" stroke="none"/>
  </g>
</svg>
